<?xml version="1.0" standalone="no"?><svg xmlns="http://www.w3.org/2000/svg" viewBox="0 0 1440 320"><path fill="#2e3966" fill-opacity="1" d="M0,256L40,245.3C80,235,160,213,240,181.3C320,149,400,107,480,128C560,149,640,235,720,229.3C800,224,880,128,960,122.7C1040,117,1120,203,1200,202.7C1280,203,1360,117,1400,74.7L1440,32L1440,320L1400,320C1360,320,1280,320,1200,320C1120,320,1040,320,960,320C880,320,800,320,720,320C640,320,560,320,480,320C400,320,320,320,240,320C160,320,80,320,40,320L0,320Z"></path></svg>