<?xml version="1.0" standalone="no"?><svg xmlns="http://www.w3.org/2000/svg" viewBox="0 0 1440 320"><path fill="#00e1fd" fill-opacity="1" d="M0,128L26.7,133.3C53.3,139,107,149,160,176C213.3,203,267,245,320,250.7C373.3,256,427,224,480,197.3C533.3,171,587,149,640,154.7C693.3,160,747,192,800,218.7C853.3,245,907,267,960,250.7C1013.3,235,1067,181,1120,170.7C1173.3,160,1227,192,1280,202.7C1333.3,213,1387,203,1413,197.3L1440,192L1440,320L1413.3,320C1386.7,320,1333,320,1280,320C1226.7,320,1173,320,1120,320C1066.7,320,1013,320,960,320C906.7,320,853,320,800,320C746.7,320,693,320,640,320C586.7,320,533,320,480,320C426.7,320,373,320,320,320C266.7,320,213,320,160,320C106.7,320,53,320,27,320L0,320Z"></path></svg>